<svg version="1" xmlns="http://www.w3.org/2000/svg" width="933.333" height="933.333" viewBox="0 0 700.000000 700.000000"><path d="M183.3 1.9c-18.6 5.3-31.7 17.7-38 35.8l-2.7 7.8v59.2l-.1 59.3 3 3c1.7 1.6 4.2 3.1 5.6 3.2l2.5.2-.1 23.6c-.1 12.9-.3 23.8-.4 24.2 0 .5-1.2.8-2.5.8-2.8 0-7.2 4.1-7.8 7.3-.3 1.3-.4 98.4-.3 215.8.2 235.5-.3 215.3 6.5 229 3.9 7.6 13.2 17.2 21.2 21.8 3.1 1.7 9.1 4 13.4 5.1 7.6 2 11.2 2 166.8 1.9 153.9 0 159.3-.1 166.5-2 20.3-5.3 36.3-22.7 39.9-43.4.4-2.8.8-141.1.7-307.5l-.1-302.5L555 38c-6.1-17-18.2-29.2-35-35.2L513.5.5l-162-.2C199.3.1 189.1.2 183.3 1.9z"/></svg>